<?xml version="1.0" encoding="us-ascii" standalone="no"?><svg xmlns="http://www.w3.org/2000/svg" xmlns:xlink="http://www.w3.org/1999/xlink" contentStyleType="text/css" height="368px" preserveAspectRatio="none" style="width:329px;height:368px;background:#FFFFFF;" version="1.1" viewBox="0 0 329 368" width="329px" zoomAndPan="magnify"><defs/><g><!--cluster template_method_pattern--><g id="cluster_template_method_pattern"><path d="M8.5,6 L221.5,6 A3.75,3.75 0 0 1 224,8.5 L231,28.2969 L319.5,28.2969 A2.5,2.5 0 0 1 322,30.7969 L322,358.5 A2.5,2.5 0 0 1 319.5,361 L8.5,361 A2.5,2.5 0 0 1 6,358.5 L6,8.5 A2.5,2.5 0 0 1 8.5,6 " fill="none" style="stroke:#000000;stroke-width:1.5;"/><line style="stroke:#000000;stroke-width:1.5;" x1="6" x2="231" y1="28.2969" y2="28.2969"/><text fill="#000000" font-family="sans-serif" font-size="14" font-weight="bold" lengthAdjust="spacing" textLength="212" x="10" y="20.9951">template_method_pattern</text></g><!--cluster template_method_pattern.dart--><g id="cluster_template_method_pattern.dart"><path d="M32.5,49 L285.5,49 A3.75,3.75 0 0 1 288,51.5 L295,71.2969 L295.5,71.2969 A2.5,2.5 0 0 1 298,73.7969 L298,334.5 A2.5,2.5 0 0 1 295.5,337 L32.5,337 A2.5,2.5 0 0 1 30,334.5 L30,51.5 A2.5,2.5 0 0 1 32.5,49 " fill="none" style="stroke:#000000;stroke-width:1.5;"/><line style="stroke:#000000;stroke-width:1.5;" x1="30" x2="295" y1="71.2969" y2="71.2969"/><text fill="#000000" font-family="sans-serif" font-size="14" font-weight="bold" lengthAdjust="spacing" textLength="252" x="34" y="63.9951">template_method_pattern.dart</text></g><!--class GameLevel--><g id="elem_GameLevel"><rect codeLine="3" fill="#F1F1F1" height="113.1875" id="GameLevel" rx="2.5" ry="2.5" style="stroke:#181818;stroke-width:0.5;" width="131" x="97.5" y="84"/><ellipse cx="120.6" cy="100" fill="#A9DCDF" rx="11" ry="11" style="stroke:#181818;stroke-width:1.0;"/><path d="M122.6781,101.8125 L123.0688,102.7969 L122.6781,102.7969 C122.225,102.7969 122.1156,102.8125 121.9594,102.9219 C121.7094,103.0781 121.5531,103.3594 121.5531,103.6563 C121.5531,103.9219 121.6938,104.1719 121.9125,104.3281 C122.0531,104.4531 122.2563,104.5 122.6781,104.5 L125.0375,104.5 C125.3969,104.5 125.6156,104.4688 125.7563,104.375 C126.0063,104.2344 126.1625,103.9375 126.1625,103.6563 C126.1625,103.375 126.0219,103.125 125.8031,102.9688 C125.6313,102.8281 125.475,102.7969 125.0063,102.7969 L121.6156,94.5938 L117.9438,94.5938 C117.4906,94.5938 117.3656,94.6094 117.2094,94.7031 C116.9594,94.875 116.8031,95.1563 116.8031,95.4375 C116.8031,95.7188 116.9438,95.9688 117.1625,96.1406 C117.3344,96.25 117.5063,96.2813 117.9438,96.2813 L119.0219,96.2813 L116.3813,102.7969 C115.9594,102.7969 115.8031,102.8125 115.6469,102.9219 C115.3969,103.0781 115.2406,103.3594 115.2406,103.6563 C115.2406,104.2188 115.6156,104.5 116.3656,104.5 L118.6313,104.5 C118.9906,104.5 119.2094,104.4688 119.3344,104.375 C119.6,104.2344 119.7406,103.9375 119.7406,103.6563 C119.7406,103.375 119.6156,103.125 119.3969,102.9531 C119.225,102.8281 119.0844,102.7969 118.6313,102.7969 L118.2406,102.7969 L118.6313,101.8125 L122.6781,101.8125 Z M121.975,100.1094 L119.3031,100.1094 L120.6469,96.8438 L121.975,100.1094 Z " fill="#000000"/><text fill="#000000" font-family="sans-serif" font-size="14" font-style="italic" lengthAdjust="spacing" textLength="81" x="136.4" y="104.8467">GameLevel</text><line style="stroke:#181818;stroke-width:0.5;" x1="98.5" x2="227.5" y1="116" y2="116"/><line style="stroke:#181818;stroke-width:0.5;" x1="98.5" x2="227.5" y1="124" y2="124"/><ellipse cx="108.5" cy="137.6484" fill="#84BE84" rx="3" ry="3" style="stroke:#038048;stroke-width:1.0;"/><text fill="#000000" font-family="sans-serif" font-size="14" lengthAdjust="spacing" textLength="79" x="117.5" y="140.9951">void start()</text><ellipse cx="108.5" cy="153.9453" fill="#84BE84" rx="3" ry="3" style="stroke:#038048;stroke-width:1.0;"/><text fill="#000000" font-family="sans-serif" font-size="14" lengthAdjust="spacing" textLength="105" x="117.5" y="157.292">void initialize()</text><ellipse cx="108.5" cy="170.2422" fill="#84BE84" rx="3" ry="3" style="stroke:#038048;stroke-width:1.0;"/><text fill="#000000" font-family="sans-serif" font-size="14" lengthAdjust="spacing" textLength="71" x="117.5" y="173.5889">void end()</text><ellipse cx="108.5" cy="186.5391" fill="#84BE84" rx="3" ry="3" style="stroke:#038048;stroke-width:1.0;"/><text fill="#000000" font-family="sans-serif" font-size="14" lengthAdjust="spacing" textLength="74" x="117.5" y="189.8857">void play()</text></g><!--class LevelOne--><g id="elem_LevelOne"><rect codeLine="10" fill="#F1F1F1" height="64.2969" id="LevelOne" rx="2.5" ry="2.5" style="stroke:#181818;stroke-width:0.5;" width="100" x="46" y="257"/><ellipse cx="61.45" cy="273" fill="#ADD1B2" rx="11" ry="11" style="stroke:#181818;stroke-width:1.0;"/><path d="M63.7938,268.6719 C62.8563,268.2344 62.2625,268.0938 61.3875,268.0938 C58.7625,268.0938 56.7625,270.1719 56.7625,272.8906 L56.7625,274.0156 C56.7625,276.5938 58.8719,278.4844 61.7625,278.4844 C62.9813,278.4844 64.1375,278.1875 64.8875,277.6406 C65.4656,277.2344 65.7938,276.7813 65.7938,276.3906 C65.7938,275.9375 65.4031,275.5469 64.9344,275.5469 C64.7156,275.5469 64.5125,275.625 64.325,275.8125 C63.8719,276.2969 63.8719,276.2969 63.6844,276.3906 C63.2625,276.6563 62.575,276.7813 61.8094,276.7813 C59.7625,276.7813 58.4656,275.6875 58.4656,273.9844 L58.4656,272.8906 C58.4656,271.1094 59.7156,269.7969 61.45,269.7969 C62.0281,269.7969 62.6375,269.9531 63.1063,270.2031 C63.5906,270.4844 63.7625,270.7031 63.8563,271.1094 C63.9188,271.5156 63.95,271.6406 64.0906,271.7656 C64.2313,271.9063 64.4656,272.0156 64.6844,272.0156 C64.95,272.0156 65.2156,271.875 65.3875,271.6563 C65.4969,271.5 65.5281,271.3125 65.5281,270.8906 L65.5281,269.4688 C65.5281,269.0313 65.5125,268.9063 65.4188,268.75 C65.2625,268.4844 64.9813,268.3438 64.6844,268.3438 C64.3875,268.3438 64.1844,268.4375 63.9656,268.75 L63.7938,268.6719 Z " fill="#000000"/><text fill="#000000" font-family="sans-serif" font-size="14" lengthAdjust="spacing" textLength="67" x="75.55" y="277.8467">LevelOne</text><line style="stroke:#181818;stroke-width:0.5;" x1="47" x2="145" y1="289" y2="289"/><line style="stroke:#181818;stroke-width:0.5;" x1="47" x2="145" y1="297" y2="297"/><ellipse cx="57" cy="310.6484" fill="#84BE84" rx="3" ry="3" style="stroke:#038048;stroke-width:1.0;"/><text fill="#000000" font-family="sans-serif" font-size="14" lengthAdjust="spacing" textLength="74" x="66" y="313.9951">void play()</text></g><!--class LevelTwo--><g id="elem_LevelTwo"><rect codeLine="16" fill="#F1F1F1" height="64.2969" id="LevelTwo" rx="2.5" ry="2.5" style="stroke:#181818;stroke-width:0.5;" width="100" x="181" y="257"/><ellipse cx="196.45" cy="273" fill="#ADD1B2" rx="11" ry="11" style="stroke:#181818;stroke-width:1.0;"/><path d="M198.7938,268.6719 C197.8563,268.2344 197.2625,268.0938 196.3875,268.0938 C193.7625,268.0938 191.7625,270.1719 191.7625,272.8906 L191.7625,274.0156 C191.7625,276.5938 193.8719,278.4844 196.7625,278.4844 C197.9813,278.4844 199.1375,278.1875 199.8875,277.6406 C200.4656,277.2344 200.7938,276.7813 200.7938,276.3906 C200.7938,275.9375 200.4031,275.5469 199.9344,275.5469 C199.7156,275.5469 199.5125,275.625 199.325,275.8125 C198.8719,276.2969 198.8719,276.2969 198.6844,276.3906 C198.2625,276.6563 197.575,276.7813 196.8094,276.7813 C194.7625,276.7813 193.4656,275.6875 193.4656,273.9844 L193.4656,272.8906 C193.4656,271.1094 194.7156,269.7969 196.45,269.7969 C197.0281,269.7969 197.6375,269.9531 198.1063,270.2031 C198.5906,270.4844 198.7625,270.7031 198.8563,271.1094 C198.9188,271.5156 198.95,271.6406 199.0906,271.7656 C199.2313,271.9063 199.4656,272.0156 199.6844,272.0156 C199.95,272.0156 200.2156,271.875 200.3875,271.6563 C200.4969,271.5 200.5281,271.3125 200.5281,270.8906 L200.5281,269.4688 C200.5281,269.0313 200.5125,268.9063 200.4188,268.75 C200.2625,268.4844 199.9813,268.3438 199.6844,268.3438 C199.3875,268.3438 199.1844,268.4375 198.9656,268.75 L198.7938,268.6719 Z " fill="#000000"/><text fill="#000000" font-family="sans-serif" font-size="14" lengthAdjust="spacing" textLength="67" x="210.55" y="277.8467">LevelTwo</text><line style="stroke:#181818;stroke-width:0.5;" x1="182" x2="280" y1="289" y2="289"/><line style="stroke:#181818;stroke-width:0.5;" x1="182" x2="280" y1="297" y2="297"/><ellipse cx="192" cy="310.6484" fill="#84BE84" rx="3" ry="3" style="stroke:#038048;stroke-width:1.0;"/><text fill="#000000" font-family="sans-serif" font-size="14" lengthAdjust="spacing" textLength="74" x="201" y="313.9951">void play()</text></g><!--reverse link GameLevel to LevelOne--><g id="link_GameLevel_LevelOne"><path codeLine="14" d="M129.097,215.631 C122.426,230.218 115.776,244.759 110.206,256.938 " fill="none" id="GameLevel-backto-LevelOne" style="stroke:#181818;stroke-width:1.0;"/><polygon fill="none" points="122.795,212.58,137.479,197.303,135.527,218.403,122.795,212.58" style="stroke:#181818;stroke-width:1.0;"/></g><!--reverse link GameLevel to LevelTwo--><g id="link_GameLevel_LevelTwo"><path codeLine="20" d="M197.409,215.631 C204.18,230.218 210.929,244.759 216.582,256.938 " fill="none" id="GameLevel-backto-LevelTwo" style="stroke:#181818;stroke-width:1.0;"/><polygon fill="none" points="190.973,218.391,188.902,197.303,203.672,212.497,190.973,218.391" style="stroke:#181818;stroke-width:1.0;"/></g><!--SRC=[pO-z2i8m58NtFCMbaoBr0OAxY-2WUxas1moaIKWkBVwzkz51kpYrW-Ev1yxzlWmXpnrov1O7H4ui8P7MIl4fI-9Mg7MSCrM2BZeMD1ta74mJMGJ9Q_sZM1jEelMshE_GmrLqKqIhFbX3MKgtM7wozLOiEtl5w0XlHgcyk9JuK6eQpvjbxp76-MxFOBcvr_LqkbaqZqFuOyqNtHC0]--></g></svg>